<svg viewBox="0 0 256 256" xmlns="http://www.w3.org/2000/svg">
	<symbol id="icon-menu" xmlns="http://www.w3.org/2000/svg"  viewBox="0 0 32 32" width="100%" height="100%">
		<path d="M 4 7 L 4 9 L 28 9 L 28 7 Z M 4 15 L 4 17 L 28 17 L 28 15 Z M 4 23 L 4 25 L 28 25 L 28 23 Z"/>
	</symbol>
	<symbol id="icon-x" xmlns="http://www.w3.org/2000/svg"  viewBox="0 0 32 32" width="100%" height="100%">
		<path d="M 7.21875 5.78125 L 5.78125 7.21875 L 14.5625 16 L 5.78125 24.78125 L 7.21875 26.21875 L 16 17.4375 L 24.78125 26.21875 L 26.21875 24.78125 L 17.4375 16 L 26.21875 7.21875 L 24.78125 5.78125 L 16 14.5625 Z"/>
	</symbol>
	<symbol id="icon-logo" xmlns="http://www.w3.org/2000/svg"
	width="100%" height="100%" viewBox="0 0 420.000000 60.000000"
	preserveAspectRatio="xMidYMid meet">

		<g transform="translate(0.000000,60.000000) scale(0.100000,-0.100000)"
		fill="#444444" stroke="none">
		<path d="M105 572 c-75 -35 -80 -52 -80 -254 0 -163 2 -179 21 -205 45 -61
		140 -80 221 -44 51 24 70 58 79 145 l7 66 -77 0 -76 0 0 -65 c0 -51 -3 -65
		-15 -65 -13 0 -15 26 -15 170 0 144 2 170 15 170 12 0 15 -14 15 -70 l0 -70
		76 0 77 0 -7 71 c-3 39 -13 84 -21 100 -31 59 -145 86 -220 51z"/>
		<path d="M2680 320 l0 -260 60 0 60 0 1 103 1 102 15 -50 c8 -27 21 -74 30
		-102 l14 -53 65 0 64 0 0 260 0 260 -65 0 -65 0 -1 -97 c0 -54 -2 -93 -4 -88
		-2 6 -15 49 -30 98 l-26 87 -59 0 -60 0 0 -260z"/>
		<path d="M443 469 c-44 -28 -53 -63 -53 -210 0 -122 1 -129 26 -158 48 -58
		164 -65 224 -15 38 33 50 78 49 194 0 116 -13 157 -58 187 -46 31 -141 32
		-188 2z m107 -194 c0 -116 -10 -164 -24 -112 -8 29 -8 195 0 224 14 52 24 4
		24 -112z"/>
		<path d="M730 275 l0 -215 70 0 70 0 0 176 c0 114 3 173 10 169 6 -4 10 -73
		10 -176 l0 -169 70 0 70 0 0 169 c0 155 8 207 24 165 3 -9 6 -87 6 -175 l0
		-159 65 0 65 0 0 190 c0 189 0 191 -25 215 -29 29 -88 34 -123 9 -20 -14 -24
		-14 -44 0 -26 18 -80 21 -109 6 -13 -7 -19 -7 -19 0 0 6 -28 10 -70 10 l-70 0
		0 -215z"/>
		<path d="M1240 245 l0 -245 70 0 70 0 0 39 0 39 30 -15 c36 -18 80 -10 106 19
		17 18 19 39 19 195 0 172 0 175 -24 194 -25 21 -81 25 -112 9 -13 -7 -19 -7
		-19 0 0 6 -28 10 -70 10 l-70 0 0 -245z m160 24 c0 -123 -10 -165 -24 -98 -8
		40 -8 167 0 208 13 65 24 15 24 -110z"/>
		<path d="M1633 471 c-42 -26 -53 -49 -53 -110 l0 -51 53 0 52 -1 -35 -15 c-62
		-27 -70 -40 -70 -116 0 -85 9 -104 59 -119 32 -9 44 -9 70 4 17 8 31 11 31 6
		0 -5 30 -9 66 -9 l65 0 -3 185 -3 185 -28 27 c-24 24 -36 28 -100 31 -58 2
		-78 -1 -104 -17z m97 -106 c0 -19 -4 -37 -10 -40 -6 -4 -10 12 -10 40 0 28 4
		44 10 40 6 -3 10 -21 10 -40z m0 -170 c0 -30 -4 -55 -10 -55 -11 0 -14 69 -4
		94 11 27 14 18 14 -39z"/>
		<path d="M1920 275 l0 -215 71 0 70 0 -1 143 c-2 198 -1 209 10 202 6 -4 10
		-73 10 -176 l0 -169 71 0 70 0 -3 196 c-3 192 -3 196 -27 215 -26 22 -100 26
		-119 7 -9 -9 -12 -9 -12 0 0 8 -22 12 -70 12 l-70 0 0 -215z"/>
		<path d="M2240 477 c0 -8 16 -92 35 -187 41 -204 42 -210 15 -210 -17 0 -20
		-7 -20 -40 l0 -40 64 0 c82 0 123 15 142 52 11 22 63 371 64 431 0 4 -29 7
		-65 7 l-65 0 -1 -67 c-1 -38 -4 -93 -8 -123 -6 -53 -7 -50 -20 68 l-14 122
		-63 0 c-47 0 -64 -4 -64 -13z"/>
		<path d="M3091 473 c-39 -19 -61 -64 -61 -123 l0 -40 53 0 52 -1 -43 -21 c-23
		-11 -47 -30 -53 -41 -17 -30 -7 -142 15 -165 25 -29 82 -37 112 -17 13 8 24
		11 24 5 0 -6 29 -10 71 -10 l71 0 -4 178 c-4 191 -9 212 -58 237 -39 20 -136
		19 -179 -2z m97 -113 c-5 -49 -28 -51 -28 -2 0 21 3 42 7 45 13 13 24 -11 21
		-43z m-2 -207 c-3 -8 -10 -11 -16 -8 -14 9 -13 62 3 88 11 20 12 19 15 -22 2
		-24 1 -50 -2 -58z"/>
		<path d="M3370 275 l0 -215 70 0 70 0 0 175 c0 110 4 175 10 175 6 0 10 -65
		10 -175 l0 -175 70 0 70 0 2 170 c2 105 7 170 13 170 6 0 11 -65 13 -170 l2
		-170 65 0 65 0 0 190 c0 189 0 191 -25 215 -30 31 -96 34 -123 7 -18 -18 -19
		-18 -42 0 -24 20 -80 24 -111 8 -13 -7 -19 -7 -19 0 0 6 -28 10 -70 10 l-70 0
		0 -215z"/>
		<path d="M3930 468 c-48 -32 -63 -91 -57 -226 7 -141 34 -178 139 -188 96 -9
		152 38 164 139 l6 57 -71 0 -71 0 0 -56 c0 -77 -24 -69 -28 9 l-3 57 86 0 85
		0 0 38 c-1 73 -17 124 -49 155 -27 28 -39 32 -98 35 -59 3 -73 0 -103 -20z
		m110 -105 c0 -14 -6 -23 -15 -23 -15 0 -22 50 -8 63 9 10 23 -14 23 -40z"/>
		</g>
	</symbol>
	<symbol id="icon-favorite"  width="100%" height="100%" viewBox="0 0 32 32" xmlns="http://www.w3.org/2000/svg"><defs><style>.cls-1{fill:#101820;}</style></defs><title/><g>
		<path class="cls-1" d="M16,28.72a3,3,0,0,1-2.13-.88L3.57,17.54a8.72,8.72,0,0,1-2.52-6.25,8.06,8.06,0,0,1,8.14-8A8.06,8.06,0,0,1,15,5.68l1,1,.82-.82h0a8.39,8.39,0,0,1,11-.89,8.25,8.25,0,0,1,.81,12.36L18.13,27.84A3,3,0,0,1,16,28.72ZM9.15,5.28A6.12,6.12,0,0,0,4.89,7a6,6,0,0,0-1.84,4.33A6.72,6.72,0,0,0,5,16.13l10.3,10.3a1,1,0,0,0,1.42,0L27.23,15.91A6.25,6.25,0,0,0,29,11.11a6.18,6.18,0,0,0-2.43-4.55,6.37,6.37,0,0,0-8.37.71L16.71,8.8a1,1,0,0,1-1.42,0l-1.7-1.7a6.28,6.28,0,0,0-4.4-1.82Z"/></g>
	</symbol>
	<symbol id="icon-login" viewBox="0 0 32 32" width="100%" height="100%"> xmlns="http://www.w3.org/2000/svg"><title/>
		<g><path d="M16,16A7,7,0,1,0,9,9,7,7,0,0,0,16,16ZM16,4a5,5,0,1,1-5,5A5,5,0,0,1,16,4Z"/><path d="M17,18H15A11,11,0,0,0,4,29a1,1,0,0,0,1,1H27a1,1,0,0,0,1-1A11,11,0,0,0,17,18ZM6.06,28A9,9,0,0,1,15,20h2a9,9,0,0,1,8.94,8Z"/></g>
	</symbol>
	<symbol id="icon-search" xmlns="http://www.w3.org/2000/svg" xmlns:xlink="http://www.w3.org/1999/xlink" viewBox="0 0 32 32" width="100%" height="100%">
		<circle style="fill:none;stroke:#000000;stroke-width:2;stroke-miterlimit:10;" cx="13" cy="13" r="9"/><line style="fill:none;stroke:#000000;stroke-width:2;stroke-linecap:round;stroke-miterlimit:10;" x1="26" y1="26" x2="19.437" y2="19.437"/>
	</symbol>
	<symbol id="icon-basket" width="100%" height="100%" viewBox="0 0 32 32" xmlns="http://www.w3.org/2000/svg"><title/>
		<g><path d="M28.18,24.79H27a3.35,3.35,0,0,0-6.41,0H15.52a3.35,3.35,0,0,0-6.41,0h-.7a1.46,1.46,0,0,1-1-2.5,1.41,1.41,0,0,1,1-.42,1,1,0,0,0,.27-.05,1,1,0,0,0,.29,0H27.33a1,1,0,0,0,1-.79l2.54-11.9a1,1,0,0,0-1-1.21H7.22L6.5,4.76a.93.93,0,0,0,0-.09,1.11,1.11,0,0,0-.18-.33,1,1,0,0,0-.15-.14L6,4.11A1,1,0,0,0,5.79,4L5.62,4l-.1,0H2.13a1,1,0,0,0,0,2h2.6l.72,3.2h0L7.74,19.93A3.47,3.47,0,0,0,5,23.32a3.47,3.47,0,0,0,3.46,3.47h.7a3.35,3.35,0,0,0,6.41,0H20.6a3.35,3.35,0,0,0,6.41,0h1.17a1,1,0,0,0,0-2ZM28.64,10l-2.11,9.9H9.77L7.66,10ZM12.32,27.16a1.38,1.38,0,1,1,1.37-1.37A1.37,1.37,0,0,1,12.32,27.16Zm11.49,0a1.38,1.38,0,1,1,1.37-1.37A1.37,1.37,0,0,1,23.81,27.16Z"/></g>
	</symbol>
</svg>
