<svg viewBox="0 0 256 256" xmlns="http://www.w3.org/2000/svg">
	<symbol id="icon-menu" xmlns="http://www.w3.org/2000/svg"  viewBox="0 0 32 32" width="100%" height="100%">
		<path d="M 4 7 L 4 9 L 28 9 L 28 7 Z M 4 15 L 4 17 L 28 17 L 28 15 Z M 4 23 L 4 25 L 28 25 L 28 23 Z"/>
	</symbol>
	<symbol id="icon-x" xmlns="http://www.w3.org/2000/svg"  viewBox="0 0 32 32" width="100%" height="100%">
		<path d="M 7.21875 5.78125 L 5.78125 7.21875 L 14.5625 16 L 5.78125 24.78125 L 7.21875 26.21875 L 16 17.4375 L 24.78125 26.21875 L 26.21875 24.78125 L 17.4375 16 L 26.21875 7.21875 L 24.78125 5.78125 L 16 14.5625 Z"/>
	</symbol>
	<symbol id="icon-logo" version="1.0" xmlns="http://www.w3.org/2000/svg"
	width="100%" height="100%" viewBox="0 0 525 95"
	preserveAspectRatio="xMidYMid meet">
		<g transform="translate(0.000000,95.000000) scale(0.100000,-0.100000)"
		fill="#000000" stroke="none">
		<path d="M242 842 c-65 -59 -117 -138 -138 -208 -15 -52 -17 -54 -50 -54 -43
		0 -45 -18 -1 -22 l32 -3 3 -232 2 -233 75 0 75 0 0 235 0 235 55 0 c30 0 55 5
		55 10 0 6 -25 10 -56 10 l-56 0 4 88 c4 88 20 134 60 178 15 17 16 23 6 32
		-11 8 -26 0 -66 -36z"/>
		<path d="M500 480 l0 -390 75 0 75 0 0 390 0 390 -75 0 -75 0 0 -390z"/>
		<path d="M4310 480 l0 -390 75 0 75 0 0 390 0 390 -75 0 -75 0 0 -390z"/>
		<path d="M992 586 c-23 -8 -57 -25 -75 -39 -42 -32 -86 -112 -71 -127 8 -8 18
		3 35 37 49 94 159 136 226 87 34 -25 63 -82 70 -134 l6 -40 -124 0 c-137 0
		-182 -13 -229 -64 -20 -22 -25 -38 -25 -81 0 -43 5 -59 25 -81 78 -85 231 -86
		318 -2 l32 32 0 -42 0 -42 81 0 81 0 -4 158 c-3 143 -6 161 -28 206 -56 111
		-199 170 -318 132z m186 -288 c-8 -98 -62 -168 -129 -168 -58 0 -105 71 -88
		134 17 61 60 84 163 85 l58 1 -4 -52z"/>
		<path d="M4798 586 c-52 -19 -82 -40 -112 -78 -35 -47 -48 -85 -32 -91 9 -4
		20 10 32 34 33 75 118 126 186 112 44 -9 86 -57 104 -120 9 -30 12 -59 8 -63
		-5 -5 -65 -10 -134 -12 -97 -2 -133 -7 -162 -22 -99 -49 -103 -183 -8 -240 40
		-23 132 -32 186 -17 22 6 59 27 82 47 l42 36 0 -41 0 -41 75 0 75 0 0 158 c0
		151 -1 161 -26 211 -55 109 -202 168 -316 127z m189 -290 c-14 -138 -110 -208
		-189 -137 -28 25 -33 36 -33 74 0 77 54 116 164 117 l64 0 -6 -54z"/>
		<path d="M1765 575 c-16 -8 -45 -32 -62 -52 l-33 -36 0 46 0 47 -80 0 -80 0 0
		-245 0 -245 80 0 80 0 0 160 c0 166 8 209 48 253 42 47 99 40 129 -15 15 -27
		18 -64 21 -215 l4 -183 73 0 73 0 3 168 c4 161 5 169 31 213 47 79 113 83 150
		9 15 -29 18 -63 18 -212 l0 -178 75 0 75 0 0 183 c0 172 -1 187 -23 227 -32
		62 -65 83 -136 88 -74 5 -128 -22 -171 -86 -25 -38 -29 -41 -35 -22 -9 30 -53
		79 -86 95 -36 19 -116 19 -154 0z"/>
		<path d="M2805 576 c-17 -7 -45 -29 -62 -50 -18 -20 -35 -36 -38 -36 -3 0 -5
		20 -5 45 l0 45 -75 0 -75 0 0 -245 0 -245 75 0 75 0 0 123 c0 67 4 148 10 181
		21 132 128 188 175 91 12 -26 15 -71 15 -214 l0 -181 79 0 80 0 3 167 c3 191
		16 234 77 265 42 21 70 12 96 -33 18 -30 20 -56 23 -216 l4 -183 74 0 74 0 0
		178 c0 170 -1 180 -25 228 -60 120 -227 127 -303 14 -25 -38 -42 -49 -42 -29
		0 20 -49 78 -80 94 -35 18 -114 19 -155 1z"/>
		<path d="M3590 407 c0 -164 1 -176 25 -223 60 -120 208 -138 313 -37 25 24 47
		43 49 43 2 0 3 -22 3 -50 l0 -50 75 0 75 0 0 245 0 245 -74 0 -74 0 -4 -157
		c-3 -140 -6 -163 -26 -201 -13 -23 -37 -52 -55 -62 -60 -37 -108 -22 -138 43
		-16 36 -19 67 -19 210 l0 167 -75 0 -75 0 0 -173z"/>
		</g>
	</symbol>
	<symbol id="icon-favorite"  width="100%" height="100%" viewBox="0 0 32 32" xmlns="http://www.w3.org/2000/svg"><defs><style>.cls-1{fill:#101820;}</style></defs><title/><g>
		<path class="cls-1" d="M16,28.72a3,3,0,0,1-2.13-.88L3.57,17.54a8.72,8.72,0,0,1-2.52-6.25,8.06,8.06,0,0,1,8.14-8A8.06,8.06,0,0,1,15,5.68l1,1,.82-.82h0a8.39,8.39,0,0,1,11-.89,8.25,8.25,0,0,1,.81,12.36L18.13,27.84A3,3,0,0,1,16,28.72ZM9.15,5.28A6.12,6.12,0,0,0,4.89,7a6,6,0,0,0-1.84,4.33A6.72,6.72,0,0,0,5,16.13l10.3,10.3a1,1,0,0,0,1.42,0L27.23,15.91A6.25,6.25,0,0,0,29,11.11a6.18,6.18,0,0,0-2.43-4.55,6.37,6.37,0,0,0-8.37.71L16.71,8.8a1,1,0,0,1-1.42,0l-1.7-1.7a6.28,6.28,0,0,0-4.4-1.82Z"/></g>
	</symbol>
	<symbol id="icon-search" xmlns="http://www.w3.org/2000/svg" xmlns:xlink="http://www.w3.org/1999/xlink" viewBox="0 0 32 32" width="100%" height="100%">
		<circle style="fill:none;stroke:#000000;stroke-width:2;stroke-miterlimit:10;" cx="13" cy="13" r="9"/><line style="fill:none;stroke:#000000;stroke-width:2;stroke-linecap:round;stroke-miterlimit:10;" x1="26" y1="26" x2="19.437" y2="19.437"/>
	</symbol>
	<symbol id="icon-cart" width="100%" height="100%" viewBox="0 0 32 32" xmlns="http://www.w3.org/2000/svg"><title/>
		<g><path d="M28.18,24.79H27a3.35,3.35,0,0,0-6.41,0H15.52a3.35,3.35,0,0,0-6.41,0h-.7a1.46,1.46,0,0,1-1-2.5,1.41,1.41,0,0,1,1-.42,1,1,0,0,0,.27-.05,1,1,0,0,0,.29,0H27.33a1,1,0,0,0,1-.79l2.54-11.9a1,1,0,0,0-1-1.21H7.22L6.5,4.76a.93.93,0,0,0,0-.09,1.11,1.11,0,0,0-.18-.33,1,1,0,0,0-.15-.14L6,4.11A1,1,0,0,0,5.79,4L5.62,4l-.1,0H2.13a1,1,0,0,0,0,2h2.6l.72,3.2h0L7.74,19.93A3.47,3.47,0,0,0,5,23.32a3.47,3.47,0,0,0,3.46,3.47h.7a3.35,3.35,0,0,0,6.41,0H20.6a3.35,3.35,0,0,0,6.41,0h1.17a1,1,0,0,0,0-2ZM28.64,10l-2.11,9.9H9.77L7.66,10ZM12.32,27.16a1.38,1.38,0,1,1,1.37-1.37A1.37,1.37,0,0,1,12.32,27.16Zm11.49,0a1.38,1.38,0,1,1,1.37-1.37A1.37,1.37,0,0,1,23.81,27.16Z"/></g>
	</symbol>
	<symbol id="icon-telegram" xmlns="http://www.w3.org/2000/svg" xmlns:xlink="http://www.w3.org/1999/xlink" viewBox="0,0,256,256" width="100%" height="100%" fill-rule="nonzero"><g fill="#444444" fill-rule="nonzero" stroke="none" stroke-width="1" stroke-linecap="butt" stroke-linejoin="miter" stroke-miterlimit="10" stroke-dasharray="" stroke-dashoffset="0" font-family="none" font-weight="none" font-size="none" text-anchor="none" style="mix-blend-mode: normal"><g transform="scale(5.12,5.12)">
		<path d="M25,2c-12.69071,0 -23,10.3093 -23,23c0,12.6907 10.30929,23 23,23c12.69071,0 23,-10.3093 23,-23c0,-12.6907 -10.30929,-23 -23,-23zM25,4c11.60983,0 21,9.39017 21,21c0,11.60983 -9.39017,21 -21,21c-11.60983,0 -21,-9.39017 -21,-21c0,-11.60982 9.39017,-21 21,-21zM34.08789,14.03516c-0.684,0 -1.45256,0.15842 -2.35156,0.48242c-1.396,0.503 -17.81559,7.47458 -19.68359,8.26758c-1.068,0.454 -3.05664,1.2985 -3.05664,3.3125c0,1.335 0.78227,2.28984 2.32227,2.83984c0.828,0.295 2.79455,0.89108 3.93555,1.20508c0.484,0.133 0.99834,0.20117 1.52734,0.20117c1.035,0 2.07658,-0.25789 2.89258,-0.71289c-0.007,0.168 -0.00242,0.33781 0.01758,0.50781c0.123,1.05 0.77047,2.03758 1.73047,2.64258c0.628,0.396 5.75744,3.83291 6.52344,4.37891c1.076,0.769 2.2655,1.17578 3.4375,1.17578c2.24,0 2.99152,-2.31283 3.35352,-3.42383c0.525,-1.613 2.49089,-14.72997 2.71289,-17.04297c0.151,-1.585 -0.50958,-2.89019 -1.76758,-3.49219c-0.471,-0.227 -1.00875,-0.3418 -1.59375,-0.3418zM34.08789,16.03516c0.275,0 0.52052,0.04548 0.72852,0.14648c0.473,0.227 0.71363,0.73305 0.64063,1.49805c-0.242,2.523 -2.20309,15.32928 -2.62109,16.61328c-0.358,1.098 -0.73512,2.04297 -1.45313,2.04297c-0.718,0 -1.50239,-0.25169 -2.27539,-0.80469c-0.773,-0.552 -5.90614,-3.99436 -6.61914,-4.44336c-0.625,-0.394 -1.28647,-1.37617 -0.35547,-2.32617c0.767,-0.782 6.58503,-6.42878 7.08203,-6.92578c0.37,-0.371 0.19698,-0.81836 -0.16602,-0.81836c-0.125,0 -0.27469,0.05269 -0.42969,0.17969c-0.608,0.497 -9.08436,6.169 -9.81836,6.625c-0.486,0.302 -1.23853,0.51953 -2.01953,0.51953c-0.333,0 -0.67014,-0.03991 -0.99414,-0.12891c-1.128,-0.311 -3.03692,-0.89016 -3.79492,-1.16016c-0.729,-0.26 -0.99414,-0.50908 -0.99414,-0.95508c0,-0.634 0.89489,-1.07166 1.83789,-1.47266c0.996,-0.423 18.23012,-7.74156 19.57812,-8.22656c0.624,-0.226 1.19483,-0.36328 1.67383,-0.36328z">
		</path></g></g>
	</symbol>
	<symbol id="icon-vk" xmlns="http://www.w3.org/2000/svg" xmlns:xlink="http://www.w3.org/1999/xlink" viewBox="0,0,256,256" width="100%" height="100%" fill-rule="nonzero"><g fill="#444444" fill-rule="nonzero" stroke="none" stroke-width="1" stroke-linecap="butt" stroke-linejoin="miter" stroke-miterlimit="10" stroke-dasharray="" stroke-dashoffset="0" font-family="none" font-weight="none" font-size="none" text-anchor="none" style="mix-blend-mode: normal"><g transform="scale(5.12,5.12)">
		<path d="M25,2c-12.6907,0 -23,10.3093 -23,23c0,12.69071 10.3093,23 23,23c12.69071,0 23,-10.30929 23,-23c0,-12.6907 -10.30929,-23 -23,-23zM25,4c11.60982,0 21,9.39018 21,21c0,11.60982 -9.39018,21 -21,21c-11.60982,0 -21,-9.39018 -21,-21c0,-11.60982 9.39018,-21 21,-21zM15.00195,18l-4.03516,0.00195c0,0 -0.2309,-0.01301 -0.50977,0.02344c-0.27887,0.03645 -0.69084,0.05337 -1.11328,0.53125l-0.00195,0.00195l-0.00195,0.00195c-0.37576,0.42972 -0.36143,0.92987 -0.31445,1.20508c0.0468,0.2742 0.15157,0.47895 0.15234,0.48047v0.00195c0.0388,0.09518 2.96864,7.27388 6.66211,11.13086c2.60525,2.72238 5.39156,3.62109 7.87305,3.62109h1.28711c0.42346,0 0.80165,-0.01927 1.2207,-0.23633c0.41905,-0.21706 0.7793,-0.8161 0.7793,-1.28125c0,-0.50117 0.01231,-0.98702 0.07617,-1.25781c0.05965,-0.25289 0.03663,-0.19082 0.06055,-0.19141c0.02397,0.0052 0.06761,0.01531 0.15039,0.05273c0.17839,0.08065 0.45404,0.26069 0.75977,0.49805c0.6105,0.47396 1.33363,1.16157 2.14453,1.69336c1.16145,0.76978 2.42188,0.72266 2.42188,0.72266h4.15625l0.04492,-0.00391c0,0 0.63776,-0.0145 1.29297,-0.41602c0.32761,-0.20076 0.71694,-0.56904 0.84766,-1.12109c0.13072,-0.55205 -0.03619,-1.13124 -0.35742,-1.64062c-0.11735,-0.18684 -0.68702,-1.01248 -2.96094,-3.03125c-0.58746,-0.52102 -0.98808,-0.88983 -1.14648,-1.08594c-0.05624,-0.06962 -0.06095,-0.0629 -0.07227,-0.06641c0.01325,-0.03419 0.14463,-0.31086 0.49609,-0.76758c0.3663,-0.47601 0.92293,-1.13924 1.63867,-2.05078c0.91224,-1.16219 1.5523,-2.2797 1.95508,-3.22266c0.20139,-0.47148 0.34415,-0.89929 0.42969,-1.28711c0.08554,-0.38781 0.1538,-0.71017 0.02734,-1.16992c-0.09432,-0.34223 -0.35047,-0.64875 -0.60156,-0.81055c-0.25109,-0.1618 -0.48519,-0.22274 -0.69531,-0.26172c-0.42025,-0.07796 -0.79103,-0.06445 -1.13672,-0.06445c-0.72381,0 -3.94144,0.02539 -4.20703,0.02539c-0.31171,0 -0.80896,0.12981 -1.03906,0.26172c-0.57127,0.32716 -0.75,0.77539 -0.75,0.77539l-0.05469,0.0957l-0.03125,0.10742c0,0 -0.73269,2.3702 -1.48633,3.5918h-0.00195c-0.88619,1.43911 -1.54723,2.00995 -1.83789,2.17188c-0.03087,0.0172 -0.01377,0.00806 -0.03516,0.01953c-0.02273,-0.06621 -0.05142,-0.15738 -0.07031,-0.32617c-0.04251,-0.38023 -0.01758,-0.91569 -0.01758,-1.43359c0,-1.43442 0.10772,-2.32888 -0.01172,-3.17578c-0.05972,-0.42345 -0.21176,-0.89502 -0.55859,-1.25781c-0.34683,-0.36279 -0.79482,-0.54137 -1.24219,-0.64453h-0.00195c-0.46623,-0.10737 -0.96868,-0.19958 -2.17578,-0.21094c-1.538,-0.01434 -2.53965,0.03334 -3.42969,0.42969l-0.00977,0.00586l-0.00781,0.00391c-0.35167,0.16519 -0.6289,0.35454 -0.87305,0.60742c-0.12207,0.12644 -0.2669,0.21852 -0.36719,0.62109c-0.05015,0.20129 -0.05565,0.58212 0.17188,0.89063c0.22752,0.3085 0.54638,0.40155 0.73438,0.42578c-0.03468,-0.0045 0.1479,0.03568 0.28906,0.10547c0.14116,0.06979 0.26372,0.17028 0.29492,0.21094v0.00195c-0.01305,-0.01695 0.1225,0.31991 0.1582,0.62695c0.0357,0.30704 0.0293,0.55469 0.0293,0.55469l-0.00195,0.06055l0.00586,0.06055c0,0 0.06139,0.67946 0.0293,1.38086c-0.01605,0.3507 -0.06038,0.70369 -0.11914,0.91992c-0.00311,0.01144 -0.00453,0.00743 -0.00781,0.01758c-0.25037,-0.17486 -0.8277,-0.78414 -1.62305,-2.09766c-0.73523,-1.21506 -1.42383,-3.40039 -1.42383,-3.40039l-0.01562,-0.04883l-0.01758,-0.04687c0,0 -0.12838,-0.48818 -0.69531,-0.88672c-0.53138,-0.37408 -1.03711,-0.42578 -1.03711,-0.42578zM14.76953,20c0.0572,0.02091 0.17678,0.064 0.19922,0.07422l-0.02344,-0.07031c0,0 0.03079,0.0707 0.03125,0.07227c0.00025,0.00014 0.00381,0.00185 0.00391,0.00195v0.00195h0.00195c-0.05026,-0.03516 -0.00765,-0.00026 -0.00195,0.00781c0.02762,0.09423 0.63822,2.19753 1.5918,3.77344c0.86868,1.43462 1.51045,2.23833 2.21094,2.71875c0.69981,0.47995 1.64083,0.43049 2.11914,0.18164c0.63923,-0.33197 0.81791,-0.87758 0.94141,-1.33203c0.12349,-0.45445 0.16755,-0.91551 0.1875,-1.35156c0.03807,-0.83199 -0.02704,-1.51259 -0.0332,-1.58008c0.001,-0.03759 0.0099,-0.36265 -0.04102,-0.80078c-0.05133,-0.44148 -0.14334,-0.99011 -0.53516,-1.54102c0.43889,-0.06521 0.68256,-0.16451 1.56836,-0.15625c1.12964,0.01063 1.30148,0.05776 1.74609,0.16016c0.24214,0.05584 0.26902,0.1021 0.24609,0.07813c-0.02292,-0.02398 -0.002,-0.04 0.02539,0.1543c0.05482,0.3885 -0.00781,1.3849 -0.00781,2.89648c0,0.4261 -0.04114,1.02698 0.0293,1.65625c0.07039,0.62887 0.26694,1.43353 1.02734,1.9043c0.43326,0.26814 1.26093,0.36036 2.04102,-0.07422c0.78009,-0.43458 1.5806,-1.26825 2.56641,-2.86914c0.97379,-1.57844 1.55613,-3.65369 1.61914,-3.87305c0,0 0.01111,-0.00722 0.01758,-0.01172c0.01767,0.00085 -0.00481,0.00391 0.02344,0.00391c0.37041,0 3.53084,-0.02539 4.20703,-0.02539c0.18603,0 0.26771,0.01001 0.40625,0.01563c-0.05599,0.2159 -0.13126,0.46732 -0.26953,0.79102c-0.32497,0.7608 -0.8827,1.74758 -1.68945,2.77539c-0.69526,0.88546 -1.2354,1.52771 -1.64844,2.06445c-0.41304,0.53674 -0.73752,0.96011 -0.87305,1.57227c-0.13553,0.61216 0.12306,1.30259 0.47656,1.74023c0.3535,0.43764 0.79096,0.80624 1.375,1.32422c2.20009,1.95323 2.56106,2.54445 2.5957,2.59961v0.00195c0.03715,0.05891 0.01306,-0.00034 0.02734,0.0293c-0.12475,0.03889 -0.27323,0.08287 -0.28711,0.08594h-4.04687h-0.00586c0,0 -0.74432,-0.0244 -1.29687,-0.39062l-0.00195,-0.00195h-0.00195c-0.58455,-0.38287 -1.29104,-1.03947 -2.01758,-1.60352c-0.36327,-0.28202 -0.73313,-0.54629 -1.16211,-0.74023c-0.42898,-0.19394 -0.97268,-0.33144 -1.54492,-0.16016c-0.82826,0.2479 -1.28791,1.03615 -1.43555,1.66211c-0.10598,0.44934 -0.09031,0.8401 -0.09375,1.23242c-0.02853,0.0015 -0.00384,0.00195 -0.03711,0.00195h-1.28711c-2.03251,0 -4.147,-0.62047 -6.42773,-3.00391c-2.96517,-3.09644 -5.61069,-9.08449 -6.00781,-9.99414zM32.21289,20.00781c-0.01815,0.00404 0.03377,0.00796 0.07617,0.01172c-0.00574,0.00311 0.00049,-0.00275 -0.00781,0.00195c-0.00084,-0.01671 -0.04396,-0.01911 -0.06836,-0.01367z">
		</path></g></g>
	</symbol>
		<symbol id="icon-instagram" xmlns="http://www.w3.org/2000/svg" xmlns:xlink="http://www.w3.org/1999/xlink" viewBox="0,0,256,256" width="100%" height="100%" fill-rule="nonzero"><g fill="#444444" fill-rule="nonzero" stroke="none" stroke-width="1" stroke-linecap="butt" stroke-linejoin="miter" stroke-miterlimit="10" stroke-dasharray="" stroke-dashoffset="0" font-family="none" font-weight="none" font-size="none" text-anchor="none" style="mix-blend-mode: normal"><g transform="scale(5.12,5.12)">
		<path d="M16,3c-7.16752,0 -13,5.83248 -13,13v18c0,7.16752 5.83248,13 13,13h18c7.16752,0 13,-5.83248 13,-13v-18c0,-7.16752 -5.83248,-13 -13,-13zM16,5h18c6.08648,0 11,4.91352 11,11v18c0,6.08648 -4.91352,11 -11,11h-18c-6.08648,0 -11,-4.91352 -11,-11v-18c0,-6.08648 4.91352,-11 11,-11zM37,11c-1.10457,0 -2,0.89543 -2,2c0,1.10457 0.89543,2 2,2c1.10457,0 2,-0.89543 2,-2c0,-1.10457 -0.89543,-2 -2,-2zM25,14c-6.06329,0 -11,4.93671 -11,11c0,6.06329 4.93671,11 11,11c6.06329,0 11,-4.93671 11,-11c0,-6.06329 -4.93671,-11 -11,-11zM25,16c4.98241,0 9,4.01759 9,9c0,4.98241 -4.01759,9 -9,9c-4.98241,0 -9,-4.01759 -9,-9c0,-4.98241 4.01759,-9 9,-9z">
		</path></g></g>
	</symbol>
	<symbol id="icon-down" xmlns="http://www.w3.org/2000/svg" width="24" height="24" viewBox="0 0 24 24">
		<path d="M15.1746043,10.1203717 C15.3842672,9.94066062 15.6999172,9.96494139 15.8796283,10.1746043 C16.0593394,10.3842672 16.0350586,10.6999172 15.8253957,10.8796283 L12.3253957,13.8796283 C12.1381508,14.0401239 11.8618492,14.0401239 11.6746043,13.8796283 L8.17460431,10.8796283 C7.96494139,10.6999172 7.94066062,10.3842672 8.1203717,10.1746043 C8.30008277,9.96494139 8.61573277,9.94066062 8.82539569,10.1203717 L12,12.8414611 L15.1746043,10.1203717 Z"/>
	</symbol>
	<symbol id="icon-back" enable-background="new 0 0 64 64" viewBox="0 0 64 64" xmlns="http://www.w3.org/2000/svg" width="100%" height="100%">
		<g><g><g><path d="m59.5 34h-54.9c-1.1 0-2-.9-2-2s.9-2 2-2h54.9c1.1 0 2 .9 2 2s-.9 2-2 2z"></path></g></g></g><g><g><g><path d="m26.5 56c-.5 0-1-.2-1.4-.6l-22-22c-.8-.8-.8-2 0-2.8l22-22c.8-.8 2-.8 2.8 0s.8 2 0 2.8l-20.5 20.6 20.6 20.6c.8.8.8 2 0 2.8-.4.4-.9.6-1.5.6z"></path></g></g>
		</g>
	</symbol>
</svg>
